<svg xmlns="http://www.w3.org/2000/svg" width="96" height="96" viewBox="4 4 24 24" shape-rendering="crispEdges">
  <title>Standing chibi midnight-blue cat</title>
  <rect width="32" height="32" fill="#e5eef8"/>
  <path fill="#14233e" d="M18 8h1v1H18zM22 8h1v1H22zM7 9h2v1H7zM17 9h3v1H17zM21 9h3v1H21zM7 10h3v1H7zM16 10h8v1H16zM8 11h2v1H8zM14 11h11v1H14zM8 12h2v1H8zM14 12h11v1H14zM8 13h2v1H8zM14 13h11v1H14zM8 14h2v1H8zM14 14h5v1H14zM20 14h2v1H20zM23 14h2v1H23zM8 15h2v1H8zM14 15h5v1H14zM20 15h2v1H20zM23 15h3v1H23zM8 16h5v1H8zM15 16h10v1H15zM8 17h16v1H8zM8 18h14v1H8zM8 19h14v1H8zM7 20h15v1H7zM7 21h14v1H7zM7 22h2v1H7zM11 22h2v1H11zM15 22h3v1H15zM19 22h3v1H19zM8 23h1v1H8zM12 23h2v1H12zM15 23h3v1H15zM20 23h2v1H20z"/>
</svg>